<svg xmlns="http://www.w3.org/2000/svg" xmlns:xlink="http://www.w3.org/1999/xlink" width="500" height="500" viewBox="0 0 500 500">
  <defs>
    <clipPath id="clip-moon">
      <rect width="500" height="500"/>
    </clipPath>
  </defs>
  <g id="moon" clip-path="url(#clip-moon)">
    <g id="night" transform="translate(41.667 50.667)">
      <path id="Trazado_1" data-name="Trazado 1" d="M199.667,399.384A199.557,199.557,0,0,1,0,199.717C0,91.352,85.729,4.774,190.933.242A12.48,12.48,0,0,1,198.4,23.087a137.136,137.136,0,0,0-61.13,114.234c0,75.692,61.579,137.271,137.271,137.271a136.124,136.124,0,0,0,98.677-41.853,12.479,12.479,0,0,1,21.14,11.44,199.829,199.829,0,0,1-194.692,155.2ZM151.361,31.72a174.293,174.293,0,0,0-126.4,168c0,96.335,78.374,174.708,174.708,174.708,68,0,127.733-38.29,156.582-96.848a161.054,161.054,0,0,1-81.707,21.973c-89.453,0-162.229-72.776-162.229-162.229A161.964,161.964,0,0,1,151.361,31.72Z" transform="translate(0 -0.051)" fill="#fff"/>
      <path id="Trazado_2" data-name="Trazado 2" d="M394.875,149.75A12.48,12.48,0,0,1,382.4,137.271a49.973,49.973,0,0,0-49.917-49.917,12.479,12.479,0,1,1,0-24.958A49.973,49.973,0,0,0,382.4,12.479a12.479,12.479,0,0,1,24.958,0A49.973,49.973,0,0,0,457.271,62.4a12.479,12.479,0,0,1,0,24.958,49.973,49.973,0,0,0-49.917,49.917A12.48,12.48,0,0,1,394.875,149.75ZM373.827,74.875a75.491,75.491,0,0,1,21.048,21.048,75.491,75.491,0,0,1,21.048-21.048,75.491,75.491,0,0,1-21.048-21.048A75.491,75.491,0,0,1,373.827,74.875Z" transform="translate(-70.417)" fill="#fff"/>
      <path id="Trazado_3" data-name="Trazado 3" d="M288.156,281.313a12.48,12.48,0,0,1-12.479-12.479,31.233,31.233,0,0,0-31.2-31.2,12.479,12.479,0,1,1,0-24.958,31.233,31.233,0,0,0,31.2-31.2,12.479,12.479,0,0,1,24.958,0,31.233,31.233,0,0,0,31.2,31.2,12.479,12.479,0,0,1,0,24.958,31.233,31.233,0,0,0-31.2,31.2A12.48,12.48,0,0,1,288.156,281.313Zm-8.418-56.156a56.66,56.66,0,0,1,8.418,8.418,56.66,56.66,0,0,1,8.418-8.418,56.661,56.661,0,0,1-8.418-8.418A56.661,56.661,0,0,1,279.738,225.156Z" transform="translate(-51.052 -37.189)" fill="#fff"/>
    </g>
  </g>
</svg>
